<?xml version="1.0" encoding="UTF-8" standalone="no"?>
<svg xmlns:dc="http://purl.org/dc/elements/1.1/"
   xmlns:cc="http://creativecommons.org/ns#"
   xmlns:rdf="http://www.w3.org/1999/02/22-rdf-syntax-ns#"
   xmlns:svg="http://www.w3.org/2000/svg"
   xmlns="http://www.w3.org/2000/svg" version="1.1" id="svg5332" viewBox="0 0 256.00007 256.00002" height="15mm" width="15mm">
   <title id="title6979">Mobile Phone</title>
   <defs id="defs5334" />
   <metadata id="metadata5337">
      <rdf:RDF>
         <cc:Work rdf:about="">
            <dc:format>image/svg+xml</dc:format>
            <dc:type rdf:resource="http://purl.org/dc/dcmitype/StillImage" />
            <dc:title>Mobile Phone</dc:title>
            <cc:license rdf:resource="http://creativecommons.org/publicdomain/zero/1.0/" />
            <dc:creator>
               <cc:Agent>
                  <dc:title>Josh &quot;Cheeseness&quot; Bush</dc:title>
               </cc:Agent>
            </dc:creator>
            <dc:description>Originally created for the official shirt for the 2014 Open Source Developers' Conference held at Griffith University.</dc:description>
            <dc:subject>
               <rdf:Bag>
                  <rdf:li>mobile phone cellphone</rdf:li>
               </rdf:Bag>
            </dc:subject>
            <dc:date>2014-10-22</dc:date>
         </cc:Work>
         <cc:License rdf:about="http://creativecommons.org/publicdomain/zero/1.0/">
            <cc:permits rdf:resource="http://creativecommons.org/ns#Reproduction" />
            <cc:permits rdf:resource="http://creativecommons.org/ns#Distribution" />
            <cc:permits rdf:resource="http://creativecommons.org/ns#DerivativeWorks" />
         </cc:License>
      </rdf:RDF>
   </metadata>
   <g transform="translate(-362.5464,-406.21469)" id="layer1">
      <path id="rect4213-0-3" d="m 416.56624,406.2147 c -5.9618,0 -10.9356,4.97348 -10.9356,10.93526 l 0,234.12948 c 0,5.96178 4.9738,10.93526 10.9356,10.93526 l 147.9605,0 c 5.9615,0 10.9355,-4.97348 10.9355,-10.93526 l 0,-234.12948 c 0,-5.96178 -4.974,-10.93526 -10.9355,-10.93526 z m 3.272,14.74483 141.4193,0 0,196.56771 -141.4191,0 z m 70.7081,208.59327 c 2.665,0 5.4517,1.15408 7.3361,3.03849 1.8842,1.88413 3.0354,4.66803 3.0354,7.33279 0,2.66504 -1.1512,5.44866 -3.0354,7.33307 -1.8844,1.88413 -4.6711,3.0385 -7.3361,3.0385 -2.6648,0 -5.4484,-1.15437 -7.3328,-3.0385 -1.8844,-1.88441 -3.0385,-4.66803 -3.0385,-7.33307 0,-2.66476 1.1541,-5.44866 3.0385,-7.33279 1.8844,-1.88441 4.668,-3.03849 7.3328,-3.03849 z" style="color:#000000;clip-rule:nonzero;display:inline;overflow:visible;visibility:visible;color-interpolation:sRGB;color-interpolation-filters:linearRGB;fill:#ffa400;fill-opacity:1;fill-rule:nonzero;stroke:none;stroke-width:7;marker:none;color-rendering:auto;image-rendering:auto;shape-rendering:auto;text-rendering:auto;enable-background:accumulate" />
   </g>
</svg>
